<svg width="28" height="32" viewBox="0 0 28 32" fill="none" xmlns="http://www.w3.org/2000/svg">
<path d="M20.1399 32C19.9757 32 19.8196 31.9134 19.7342 31.7661C19.6278 31.5823 19.6583 31.3499 19.8085 31.1997C22.3367 28.6714 23.5143 25.6693 23.5143 21.7518C23.5143 21.4929 23.7242 21.2831 23.983 21.2831C24.2419 21.2831 24.4518 21.4929 24.4518 21.7518C24.4518 25.2103 23.5366 28.0939 21.6625 30.5139C23.6779 29.6578 25.1817 28.3385 26.06 26.6401C27.1349 24.5617 27.2855 21.9195 26.4956 18.9991L23.5972 8.28348C23.5646 8.16311 23.5814 8.03473 23.6437 7.92667C23.7061 7.81861 23.809 7.73998 23.9295 7.70798C24.1797 7.64161 24.4377 7.79042 24.504 8.04067C24.5068 8.05136 24.5092 8.06211 24.5114 8.07286L27.4006 18.7543C28.2528 21.9048 28.0772 24.7806 26.8928 27.0708C25.6658 29.4434 23.373 31.1423 20.2624 31.9836C20.2216 31.9947 20.1806 32 20.1399 32ZM7.86033 32C7.8197 32 7.77858 31.9947 7.73789 31.9837C4.62721 31.1422 2.33446 29.4434 1.10746 27.0708C-0.0769078 24.7806 -0.252532 21.9048 0.599653 18.7544L3.48534 8.08598C3.4879 8.07005 3.49127 8.05411 3.49552 8.03836C4.77258 3.30549 9.0922 0 14.0001 0C16.1072 0 18.1515 0.603374 19.9118 1.74487C21.6261 2.85656 22.9898 4.41974 23.8553 6.26536C23.9652 6.49974 23.8643 6.77892 23.6299 6.8888C23.3955 6.99899 23.1164 6.89792 23.0065 6.66349C22.2154 4.97661 20.9689 3.54774 19.4017 2.53156C17.7937 1.48868 15.9258 0.937498 14.0001 0.937498C9.53082 0.937498 5.59552 3.93624 4.41315 8.23642C4.41058 8.25217 4.40721 8.26792 4.40302 8.28348L1.50459 18.9991C0.714653 21.9195 0.865278 24.5617 1.94015 26.6401C2.81846 28.3386 4.32233 29.6578 6.3377 30.5139C4.46358 28.0938 3.5484 25.2103 3.5484 21.7518C3.5484 21.4929 3.75827 21.2831 4.01715 21.2831C4.27602 21.2831 4.4859 21.4929 4.4859 21.7518C4.4859 25.6693 5.66346 28.6714 8.1917 31.1997C8.34189 31.3499 8.37233 31.5822 8.26595 31.7661C8.18064 31.9134 8.02451 32 7.86033 32ZM17.3274 31.9999C17.2075 31.9999 17.0875 31.9542 16.996 31.8627C16.8129 31.6796 16.8129 31.3828 16.996 31.1997C18.4246 29.7712 19.4219 28.1914 20.0192 26.3806C18.8022 25.8844 17.3177 25.5503 15.702 25.4105C15.4441 25.3883 15.2531 25.1611 15.2754 24.9031C15.2977 24.6453 15.5248 24.454 15.7828 24.4766C17.4502 24.6208 18.9941 24.9644 20.2799 25.4751C20.5635 24.3298 20.7018 23.0946 20.7018 21.752V10.113C20.7018 8.98492 20.4795 7.89148 20.0556 6.88267C19.5507 9.29223 17.8995 11.3339 15.5717 12.3046L7.29845 15.7545V19.3964C7.29845 19.6553 7.08858 19.8651 6.8297 19.8651C6.57083 19.8651 6.36095 19.6553 6.36095 19.3964V15.4529C6.36083 15.4459 6.36083 15.4388 6.36095 15.4318V10.1129C6.36095 7.63705 7.32383 5.31061 9.07226 3.56218C9.25532 3.37918 9.55214 3.37918 9.73514 3.56218C9.9182 3.7453 9.9182 4.04205 9.73514 4.22512C8.16383 5.79643 7.29845 7.88742 7.29845 10.1129V14.7387L9.57332 13.7901C11.3326 13.0537 12.8106 11.8371 13.8482 10.2712C14.8821 8.71098 15.4285 6.88205 15.4285 4.9823C15.4285 4.72337 15.6384 4.51355 15.8972 4.51355C16.1561 4.51355 16.366 4.72337 16.366 4.9823C16.366 7.06692 15.7656 9.07479 14.6298 10.789C14.3163 11.262 13.9666 11.7058 13.5839 12.1177L15.2109 11.4393C17.6384 10.427 19.2259 8.08405 19.2787 5.45049C18.9836 5.0153 18.645 4.60505 18.2651 4.22518C18.0821 4.04205 18.0821 3.7453 18.2651 3.56224C18.4482 3.37924 18.745 3.37924 18.928 3.56224C20.6764 5.31068 21.6393 7.63705 21.6393 10.113V21.7518C21.6393 25.8769 20.3373 29.1843 17.6589 31.8626C17.5674 31.9542 17.4474 31.9999 17.3274 31.9999ZM10.6728 31.9999C10.5528 31.9999 10.4328 31.9542 10.3413 31.8627C7.66295 29.1843 6.36089 25.877 6.36089 21.7519C6.36089 21.493 6.57077 21.2831 6.82964 21.2831C7.08852 21.2831 7.29839 21.493 7.29839 21.7519C7.29839 23.0945 7.4367 24.3296 7.72026 25.4749C9.46614 24.7811 11.6698 24.4013 13.9879 24.4H13.9882C14.247 24.4 14.4568 24.6096 14.4569 24.8685C14.4571 25.1274 14.2473 25.3374 13.9884 25.3375C11.7466 25.3388 9.6297 25.7078 7.98089 26.3805C8.5782 28.1914 9.57551 29.7712 11.0041 31.1997C11.1872 31.3829 11.1872 31.6796 11.0041 31.8627C10.9127 31.9542 10.7928 31.9999 10.6728 31.9999Z" fill="black"/>
</svg>
