<svg width="32" height="32" viewBox="0 0 32 32" fill="none" xmlns="http://www.w3.org/2000/svg">
<path d="M5.53684 30.2714H0.468938C0.209897 30.2714 0 30.0615 0 29.8024C0 29.5434 0.209897 29.3335 0.468938 29.3335H5.53684C8.61445 29.3335 10.9467 28.9697 12.6668 28.2214C14.1159 27.591 15.1696 26.6898 15.9346 25.4156H10.357C8.56305 25.4156 7.16399 23.8919 6.97936 21.8104H0.468938C0.209897 21.8104 0 21.6005 0 21.3414C0 21.0824 0.209897 20.8725 0.468938 20.8725H7.4276C9.70257 20.8725 11.6951 20.0712 13.1896 18.5551L16.6491 15.0378L14.6083 12.9833C14.4991 12.8733 14.4513 12.7164 14.4805 12.5642C14.5099 12.412 14.6125 12.2841 14.7547 12.2225C15.1927 12.0328 15.6076 11.8549 16.0028 11.6853C17.8128 10.9089 19.2424 10.2956 20.5605 9.55139C20.786 9.42428 21.0721 9.50368 21.1994 9.72921C21.3267 9.95474 21.2472 10.2408 21.0216 10.3682C19.6591 11.1375 18.2088 11.7596 16.3726 12.5473C16.1732 12.6328 15.9688 12.7205 15.7589 12.8108L20.8947 17.9814C23.0914 12.9326 24.2921 10.566 28.2867 6.57138L30.8275 4.03062C30.9882 3.86986 31.0734 3.6474 31.0611 3.42018C31.0487 3.18997 30.9415 2.98251 30.7594 2.83595C30.4473 2.58498 29.9683 2.62299 29.6688 2.92255L27.128 5.46331C25.3954 7.19582 24.0232 8.38705 22.6787 9.3258C22.4662 9.47417 22.1739 9.42215 22.0258 9.20982C21.8775 8.99748 21.9295 8.70511 22.1417 8.55687C23.4395 7.65082 24.7727 6.49223 26.4647 4.80017L29.0054 2.25922C29.6493 1.61546 30.656 1.54925 31.347 2.1051C31.7338 2.41616 31.9709 2.87703 31.9974 3.36948C32.0241 3.86224 31.8394 4.34493 31.4906 4.69369L28.9497 7.23452C24.913 11.2713 23.8075 13.6136 21.4797 18.9889C21.4179 19.1317 21.2893 19.2345 21.1364 19.2634C20.9837 19.292 20.8263 19.2435 20.7167 19.133L18.6318 17.034C18.0797 17.5934 16.7426 18.9457 15.1638 20.5246C15.044 20.6443 14.928 20.7603 14.8157 20.8725H18.5203C19.11 20.8725 19.5898 21.3517 19.5901 21.9408C19.5903 22.8102 19.3595 23.6282 18.9402 24.2441C18.475 24.9274 17.8136 25.3235 17.0152 25.4014C15.2551 28.8112 11.7989 30.2714 5.53684 30.2714ZM7.92223 21.7982C8.07692 23.1612 8.92545 24.4777 10.357 24.4777H16.7081C16.7144 24.4776 16.7207 24.4776 16.727 24.4777C17.3389 24.4751 17.8226 24.2189 18.165 23.7161C18.4749 23.2611 18.6525 22.6141 18.6523 21.941C18.6523 21.8689 18.5931 21.8102 18.5204 21.8102H13.8772C12.7 22.9861 12.1497 23.5332 12.1427 23.5402C11.959 23.7229 11.6621 23.7221 11.4795 23.5384C11.2969 23.3547 11.2978 23.0577 11.4814 22.8752C11.4902 22.8665 12.3326 22.0288 14.169 20.1929L13.5165 19.5404C12.0141 20.9032 10.0582 21.6926 7.92223 21.7982ZM14.184 18.8815L14.8321 19.5296C16.2695 18.0903 17.4626 16.8835 17.9709 16.3685L17.3101 15.7032L14.184 18.8815Z" fill="black"/>
</svg>
